<svg xmlns="http://www.w3.org/2000/svg" version="1.1" xmlns:xlink="http://www.w3.org/1999/xlink" xmlns:svgjs="http://svgjs.dev/svgjs" width="1000" height="184" viewBox="0 0 1000 184"><g transform="matrix(1,0,0,1,-0.6060606060606233,0.27997465148276035)"><svg xmlns="http://www.w3.org/2000/svg" version="1.1" xmlns:xlink="http://www.w3.org/1999/xlink" xmlns:svgjs="http://svgjs.com/svgjs" viewBox="0 0 396 73" data-background-color="#102e44" preserveAspectRatio="xMidYMid meet" height="184" width="1000"><defs></defs><g id="tight-bounds" transform="matrix(1,0,0,1,0.2400000000000091,-0.11107689977305313)"><svg viewBox="0 0 395.52 73.22215379954612" height="73.22215379954612" width="395.52"><g><svg viewBox="0 0 395.52 73.22215379954612" height="73.22215379954612" width="395.52"><g><svg viewBox="0 0 539.7569252170931 99.92456662777131" height="73.22215379954612" width="395.52"><g transform="matrix(1,0,0,1,144.23692521709307,13.810124620770132)"><svg viewBox="0 0 395.52 72.30431738623105" height="72.30431738623105" width="395.52"><g><svg viewBox="0 0 395.52 72.30431738623105" height="72.30431738623105" width="395.52"><g><svg viewBox="0 0 395.52 72.30431738623105" height="72.30431738623105" width="395.52"><g transform="matrix(1,0,0,1,0,0)"><svg width="395.52" viewBox="3.6 -35.8 257.08 47" height="72.30431738623105" data-palette-color="#ffffff"><path d="M14.8 11.2L14.8 11.2Q9.45 11.2 6.53 9.45 3.6 7.7 3.6 4.45L3.6 4.45Q3.6 3 4.63 1.6 5.65 0.2 7.6-0.95L7.6-0.95 7.6-1.15Q6.6-1.7 5.85-2.65 5.1-3.6 5.1-5.15L5.1-5.15Q5.1-6.3 5.85-7.53 6.6-8.75 8-9.7L8-9.7 8-9.9Q6.75-10.85 5.88-12.43 5-14 5-16.2L5-16.2Q5-18.2 5.78-19.8 6.55-21.4 7.85-22.53 9.15-23.65 10.88-24.28 12.6-24.9 14.55-24.9L14.55-24.9Q16.55-24.9 18.15-24.3L18.15-24.3 28.2-24.3 28.2-20.95 21.9-20.95Q22.75-20.1 23.35-18.8 23.95-17.5 23.95-16.05L23.95-16.05Q23.95-14.1 23.23-12.55 22.5-11 21.23-9.93 19.95-8.85 18.23-8.28 16.5-7.7 14.55-7.7L14.55-7.7Q13.6-7.7 12.53-7.93 11.45-8.15 10.45-8.6L10.45-8.6Q8.55-7.4 8.55-5.8L8.55-5.8Q8.55-4.35 9.88-3.68 11.2-3 13.6-3L13.6-3 19.05-3Q23.75-3 26.03-1.7 28.3-0.4 28.3 2.7L28.3 2.7Q28.3 4.4 27.35 5.95 26.4 7.5 24.65 8.65 22.9 9.8 20.4 10.5 17.9 11.2 14.8 11.2ZM14.55-10.45L14.55-10.45Q16.9-10.45 18.53-12 20.15-13.55 20.15-16.2L20.15-16.2Q20.15-17.45 19.7-18.5 19.25-19.55 18.5-20.3 17.75-21.05 16.73-21.48 15.7-21.9 14.55-21.9L14.55-21.9Q13.4-21.9 12.38-21.48 11.35-21.05 10.6-20.3 9.85-19.55 9.4-18.5 8.95-17.45 8.95-16.2L8.95-16.2Q8.95-13.55 10.6-12 12.25-10.45 14.55-10.45ZM15.1 8.2L15.1 8.2Q17.2 8.2 18.9 7.8 20.6 7.4 21.8 6.73 23 6.05 23.63 5.18 24.25 4.3 24.25 3.35L24.25 3.35Q24.25 1.6 22.88 1 21.5 0.4 18.7 0.4L18.7 0.4 13.95 0.4Q12.9 0.4 11.98 0.33 11.05 0.25 10.25 0L10.25 0Q8.5 0.95 7.83 1.98 7.15 3 7.15 4.05L7.15 4.05Q7.15 5.95 9.18 7.08 11.2 8.2 15.1 8.2ZM45 0.6L45 0.6Q42.6 0.6 40.42-0.25 38.25-1.1 36.6-2.73 34.95-4.35 33.97-6.73 33-9.1 33-12.1L33-12.1Q33-15.15 33.97-17.53 34.95-19.9 36.6-21.55 38.25-23.2 40.42-24.05 42.6-24.9 45-24.9L45-24.9Q47.4-24.9 49.57-24.05 51.75-23.2 53.4-21.55 55.05-19.9 56.02-17.53 57-15.15 57-12.1L57-12.1Q57-9.1 56.02-6.73 55.05-4.35 53.4-2.73 51.75-1.1 49.57-0.25 47.4 0.6 45 0.6ZM45-2.8L45-2.8Q46.75-2.8 48.17-3.48 49.6-4.15 50.62-5.38 51.65-6.6 52.2-8.3 52.75-10 52.75-12.1L52.75-12.1Q52.75-14.2 52.2-15.93 51.65-17.65 50.62-18.9 49.6-20.15 48.17-20.83 46.75-21.5 45-21.5L45-21.5Q43.25-21.5 41.82-20.83 40.4-20.15 39.37-18.9 38.35-17.65 37.8-15.93 37.25-14.2 37.25-12.1L37.25-12.1Q37.25-10 37.8-8.3 38.35-6.6 39.37-5.38 40.4-4.15 41.82-3.48 43.25-2.8 45-2.8ZM75 0.6L75 0.6Q72.59 0.6 70.42-0.25 68.25-1.1 66.59-2.73 64.95-4.35 63.97-6.73 63-9.1 63-12.1L63-12.1Q63-15.15 63.97-17.53 64.95-19.9 66.59-21.55 68.25-23.2 70.42-24.05 72.59-24.9 75-24.9L75-24.9Q77.4-24.9 79.57-24.05 81.75-23.2 83.4-21.55 85.05-19.9 86.02-17.53 87-15.15 87-12.1L87-12.1Q87-9.1 86.02-6.73 85.05-4.35 83.4-2.73 81.75-1.1 79.57-0.25 77.4 0.6 75 0.6ZM75-2.8L75-2.8Q76.75-2.8 78.17-3.48 79.59-4.15 80.62-5.38 81.65-6.6 82.2-8.3 82.75-10 82.75-12.1L82.75-12.1Q82.75-14.2 82.2-15.93 81.65-17.65 80.62-18.9 79.59-20.15 78.17-20.83 76.75-21.5 75-21.5L75-21.5Q73.25-21.5 71.82-20.83 70.4-20.15 69.37-18.9 68.34-17.65 67.8-15.93 67.25-14.2 67.25-12.1L67.25-12.1Q67.25-10 67.8-8.3 68.34-6.6 69.37-5.38 70.4-4.15 71.82-3.48 73.25-2.8 75-2.8ZM103.54 0.6L103.54 0.6Q101.14 0.6 99.22-0.25 97.29-1.1 95.89-2.73 94.49-4.35 93.74-6.7 92.99-9.05 92.99-12.1L92.99-12.1Q92.99-15.05 93.92-17.43 94.84-19.8 96.37-21.45 97.89-23.1 99.89-24 101.89-24.9 104.04-24.9L104.04-24.9Q106.24-24.9 107.97-24.08 109.69-23.25 111.29-21.75L111.29-21.75 111.44-21.75 111.24-26.25 111.24-35.6 115.34-35.6 115.34 0 111.94 0 111.59-3.2 111.44-3.2Q109.94-1.65 107.87-0.53 105.79 0.6 103.54 0.6ZM104.39-2.85L104.39-2.85Q107.99-2.85 111.24-6.5L111.24-6.5 111.24-18.6Q109.59-20.15 108.02-20.8 106.44-21.45 104.84-21.45L104.84-21.45Q103.24-21.45 101.87-20.78 100.49-20.1 99.47-18.88 98.44-17.65 97.84-15.95 97.24-14.25 97.24-12.15L97.24-12.15Q97.24-7.75 99.12-5.3 100.99-2.85 104.39-2.85ZM134.99-17.3L134.99-17.3Q133.29-17.3 132.12-18.45 130.94-19.6 130.94-21.5L130.94-21.5Q130.94-23.4 132.12-24.58 133.29-25.75 134.99-25.75L134.99-25.75Q136.69-25.75 137.87-24.58 139.04-23.4 139.04-21.5L139.04-21.5Q139.04-19.6 137.87-18.45 136.69-17.3 134.99-17.3ZM134.99 0.6L134.99 0.6Q133.29 0.6 132.12-0.55 130.94-1.7 130.94-3.6L130.94-3.6Q130.94-5.5 132.12-6.68 133.29-7.85 134.99-7.85L134.99-7.85Q136.69-7.85 137.87-6.68 139.04-5.5 139.04-3.6L139.04-3.6Q139.04-1.7 137.87-0.55 136.69 0.6 134.99 0.6ZM159.39 0L155.29 0 155.29-35.6 159.39-35.6 159.39-11.5 159.59-11.5 172.69-24.3 177.39-24.3 167.69-14.75 178.69 0 174.09 0 165.14-12.25 159.39-6.6 159.39 0ZM199.89 0L195.79 0 195.79-20.95 184.49-20.95 184.49-24.3 199.89-24.3 199.89 0ZM197.39-29.4L197.39-29.4Q195.99-29.4 195.04-30.28 194.09-31.15 194.09-32.6L194.09-32.6Q194.09-34.05 195.04-34.93 195.99-35.8 197.39-35.8L197.39-35.8Q198.79-35.8 199.74-34.93 200.69-34.05 200.69-32.6L200.69-32.6Q200.69-31.15 199.74-30.28 198.79-29.4 197.39-29.4ZM220.98 0L215.68 0 210.38-24.3 214.48-24.3 217.38-10.2Q217.73-8.45 217.98-6.85 218.23-5.25 218.48-3.5L218.48-3.5 218.68-3.5Q218.93-5.25 219.31-6.88 219.68-8.5 220.08-10.2L220.08-10.2 223.08-22.8 227.18-22.8 230.08-10.2Q230.48-8.45 230.91-6.85 231.33-5.25 231.58-3.5L231.58-3.5 231.78-3.5Q232.08-5.25 232.31-6.85 232.53-8.45 232.88-10.2L232.88-10.2 235.78-24.3 239.58-24.3 234.38 0 229.08 0 226.28-11.6Q225.68-14.15 225.08-18.8L225.08-18.8 224.88-18.8Q224.28-14.15 223.68-11.6L223.68-11.6 220.98 0ZM259.88 0L255.78 0 255.78-20.95 244.48-20.95 244.48-24.3 259.88-24.3 259.88 0ZM257.38-29.4L257.38-29.4Q255.98-29.4 255.03-30.28 254.08-31.15 254.08-32.6L254.08-32.6Q254.08-34.05 255.03-34.93 255.98-35.8 257.38-35.8L257.38-35.8Q258.78-35.8 259.73-34.93 260.68-34.05 260.68-32.6L260.68-32.6Q260.68-31.15 259.73-30.28 258.78-29.4 257.38-29.4Z" opacity="1" transform="matrix(1,0,0,1,0,0)" fill="#ffffff" class="undefined-text-0" data-fill-palette-color="primary" id="text-0"></path></svg></g></svg></g></svg></g></svg></g><g><svg viewBox="0 0 127.16761118582119 99.92456662777131" height="99.92456662777131" width="127.16761118582119"><g><svg enable-background="new 0 0 50 50" height="99.92456662777131" version="1.1" viewBox="0.00026933988794800717 5.355569048671247 49.99860306944623 39.28743095132875" width="127.16761118582119" xml:space="preserve" xmlns="http://www.w3.org/2000/svg" xmlns:xlink="http://www.w3.org/1999/xlink" x="0" y="0" class="icon-icon-0" fill="#b2fccd" data-fill-palette-color="accent" id="icon-0"><g id="Layer_26"></g><g id="Layer_25"></g><g id="Layer_24"></g><g id="Layer_23"></g><g id="Layer_22"></g><g id="Layer_21"></g><g id="Layer_20"></g><g id="Layer_19"></g><g id="Layer_18"></g><g id="Layer_17"></g><g id="Layer_16"></g><g id="Layer_15"></g><g id="Layer_14"></g><g id="Layer_13"></g><g id="Layer_12"></g><g id="Layer_11"></g><g id="Layer_10"></g><g id="Layer_9"></g><g id="Layer_8"><path clip-rule="evenodd" d="M37.927 15.041c-4.833 1.182-6.293 3.895-8.624 8.234-2.232 4.139-4.045 6.9-8.558 9.176-4.298 2.17-10.147 2.808-14.074-0.477C3.527 29.343 2.494 24.54 3.08 20.618c0.918-6.139 5.692-9.998 11.527-11.31 4.511-1.015 8.699-0.469 13.153 0.374 3.306 0.628 3.714 0.705 8.837-1.018 2.172-0.731 3.678-0.329 4.519 0.554 1.753 1.838 0.849 5.028-1.812 5.544C38.816 14.842 38.357 14.936 37.927 15.041M37.436 11.654c0.167 0.787 0.942 1.291 1.73 1.123 0.787-0.168 1.29-0.943 1.123-1.729-0.168-0.788-0.943-1.29-1.73-1.123C37.771 10.093 37.268 10.867 37.436 11.654zM22.06 35.058c5.045-2.546 7.231-5.609 9.815-10.4 1.921-3.576 3.131-5.826 6.738-6.771 0.787-0.205 1.5-0.266 2.274-0.541l8.515 9.834c0.254 0.296 0.737-0.029 0.558-0.378l-6.054-11.804c1.559-2.389 1.296-5.724-0.676-7.794-1.563-1.64-4.124-2.465-7.561-1.309-4.4 1.481-4.727 1.419-7.373 0.916-4.885-0.924-9.379-1.465-14.331-0.351C6.937 8.043 1.287 12.845 0.188 20.194c-0.737 4.935 0.675 10.729 4.608 14.02 2.274 1.903 5.143 2.854 8.184 2.953l2.969 6.607c0.266 0.595 0.81 0.869 1.43 0.869h4.936c1.924 0 1.924-2.927 0-2.927h-4.092l-2.129-4.737C18.112 36.676 20.142 36.025 22.06 35.058z" fill-rule="evenodd" fill="#b2fccd" data-fill-palette-color="accent"></path></g><g id="Layer_7"></g><g id="Layer_6"></g><g id="Layer_5"></g><g id="Layer_4"></g><g id="Layer_3"></g><g id="Layer_2"></g></svg></g></svg></g></svg></g></svg></g></svg><rect width="395.52" height="73.22215379954612" fill="transparent" stroke="transparent"></rect></g></svg></g></svg>